<svg width="32" height="33" viewBox="0 0 32 33" fill="none" xmlns="http://www.w3.org/2000/svg">
<mask id="mask0_6_20908" style="mask-type:luminance" maskUnits="userSpaceOnUse" x="0" y="0" width="32" height="33">
<rect y="0.199219" width="32" height="32" fill="white"/>
</mask>
<g mask="url(#mask0_6_20908)">
<mask id="mask1_6_20908" style="mask-type:luminance" maskUnits="userSpaceOnUse" x="5" y="2" width="21" height="29">
<rect x="5" y="2.19922" width="21" height="28" fill="white"/>
</mask>
<g mask="url(#mask1_6_20908)">
<path fill-rule="evenodd" clip-rule="evenodd" d="M22.4289 16.8939C22.418 14.8869 23.3258 13.372 25.1633 12.2564C24.1352 10.7853 22.582 9.97595 20.5312 9.81736C18.5898 9.66423 16.468 10.9494 15.6914 10.9494C14.8711 10.9494 12.9898 9.87205 11.5133 9.87205C8.46172 9.92126 5.21875 12.3056 5.21875 17.1564C5.21875 18.5892 5.48125 20.0694 6.00625 21.597C6.70625 23.6041 9.23281 28.526 11.8688 28.4439C13.2469 28.4111 14.2203 27.465 16.0141 27.465C17.7531 27.465 18.6555 28.4439 20.1922 28.4439C22.85 28.4056 25.1359 23.9322 25.8031 21.9197C22.2375 20.2408 22.4289 16.9978 22.4289 16.8939L22.4289 16.8939ZM19.3336 7.91406C20.8266 6.14219 20.6898 4.52891 20.6461 3.94922C19.3281 4.02578 17.8023 4.84609 16.9328 5.85781C15.9758 6.94062 15.4125 8.28047 15.5328 9.78984C16.9602 9.89922 18.2617 9.16641 19.3336 7.91406Z" fill="black"/>
</g>
</g>
</svg>
