<svg width="107" height="28" viewBox="0 0 107 28" fill="none" xmlns="http://www.w3.org/2000/svg">
<path d="M9.80152 27H0.823201L0.823201 0.504898L9.98264 0.504898C12.6132 0.504898 14.8728 1.03532 16.7617 2.09616C18.6591 3.14837 20.1167 4.66201 21.1344 6.63707C22.1521 8.61212 22.661 10.9753 22.661 13.7266C22.661 16.4865 22.1478 18.8583 21.1214 20.842C20.1037 22.8256 18.6332 24.3479 16.7099 25.4087C14.7952 26.4696 12.4924 27 9.80152 27ZM5.62285 22.8472H9.56865C11.4143 22.8472 12.9539 22.5108 14.1872 21.8381C15.4205 21.1568 16.3477 20.1434 16.9687 18.7979C17.5896 17.4438 17.9001 15.7534 17.9001 13.7266C17.9001 11.6998 17.5896 10.0179 16.9687 8.68112C16.3477 7.33567 15.4291 6.33089 14.2131 5.66679C13.0056 4.99406 11.5049 4.6577 9.71096 4.6577L5.62285 4.6577L5.62285 22.8472ZM34.2249 27.3881C32.2843 27.3881 30.6025 26.9612 29.1794 26.1073C27.7563 25.2535 26.6524 24.059 25.8675 22.5238C25.0913 20.9886 24.7032 19.1946 24.7032 17.142C24.7032 15.0893 25.0913 13.291 25.8675 11.7472C26.6524 10.2034 27.7563 9.00455 29.1794 8.1507C30.6025 7.29686 32.2843 6.86993 34.2249 6.86993C36.1654 6.86993 37.8473 7.29686 39.2703 8.1507C40.6934 9.00455 41.7931 10.2034 42.5693 11.7472C43.3541 13.291 43.7466 15.0893 43.7466 17.142C43.7466 19.1946 43.3541 20.9886 42.5693 22.5238C41.7931 24.059 40.6934 25.2535 39.2703 26.1073C37.8473 26.9612 36.1654 27.3881 34.2249 27.3881ZM34.2508 23.6364C35.303 23.6364 36.1827 23.3474 36.8899 22.7696C37.5971 22.1831 38.1232 21.3983 38.4682 20.415C38.8218 19.4318 38.9987 18.3365 38.9987 17.129C38.9987 15.9129 38.8218 14.8133 38.4682 13.8301C38.1232 12.8382 37.5971 12.0491 36.8899 11.4626C36.1827 10.8761 35.303 10.5829 34.2508 10.5829C33.1727 10.5829 32.2757 10.8761 31.5598 11.4626C30.8526 12.0491 30.3222 12.8382 29.9686 13.8301C29.6236 14.8133 29.4511 15.9129 29.4511 17.129C29.4511 18.3365 29.6236 19.4318 29.9686 20.415C30.3222 21.3983 30.8526 22.1831 31.5598 22.7696C32.2757 23.3474 33.1727 23.6364 34.2508 23.6364ZM54.9321 27.3881C52.9915 27.3881 51.3097 26.9612 49.8866 26.1073C48.4635 25.2535 47.3596 24.059 46.5747 22.5238C45.7985 20.9886 45.4104 19.1946 45.4104 17.142C45.4104 15.0893 45.7985 13.291 46.5747 11.7472C47.3596 10.2034 48.4635 9.00455 49.8866 8.1507C51.3097 7.29686 52.9915 6.86993 54.9321 6.86993C56.8726 6.86993 58.5544 7.29686 59.9775 8.1507C61.4006 9.00455 62.5002 10.2034 63.2765 11.7472C64.0613 13.291 64.4537 15.0893 64.4537 17.142C64.4537 19.1946 64.0613 20.9886 63.2765 22.5238C62.5002 24.059 61.4006 25.2535 59.9775 26.1073C58.5544 26.9612 56.8726 27.3881 54.9321 27.3881ZM54.9579 23.6364C56.0102 23.6364 56.8899 23.3474 57.5971 22.7696C58.3043 22.1831 58.8304 21.3983 59.1754 20.415C59.529 19.4318 59.7058 18.3365 59.7058 17.129C59.7058 15.9129 59.529 14.8133 59.1754 13.8301C58.8304 12.8382 58.3043 12.0491 57.5971 11.4626C56.8899 10.8761 56.0102 10.5829 54.9579 10.5829C53.8799 10.5829 52.9829 10.8761 52.267 11.4626C51.5598 12.0491 51.0294 12.8382 50.6758 13.8301C50.3308 14.8133 50.1583 15.9129 50.1583 17.129C50.1583 18.3365 50.3308 19.4318 50.6758 20.415C51.0294 21.3983 51.5598 22.1831 52.267 22.7696C52.9829 23.3474 53.8799 23.6364 54.9579 23.6364ZM66.9714 27L66.9714 7.12867L71.5123 7.12867V10.4406H71.7193C72.0816 9.29348 72.7025 8.40944 73.5823 7.78846C74.4706 7.15886 75.484 6.84406 76.6225 6.84406C76.8812 6.84406 77.1701 6.85699 77.4893 6.88287C77.817 6.90012 78.0887 6.9303 78.3043 6.97343V11.2815C78.1059 11.2125 77.7911 11.1521 77.3599 11.1004C76.9373 11.04 76.5276 11.0098 76.1309 11.0098C75.277 11.0098 74.5094 11.1952 73.8281 11.5661C73.1553 11.9283 72.6249 12.4329 72.2368 13.0797C71.8487 13.7266 71.6546 14.4726 71.6546 15.3178L71.6546 27H66.9714ZM86.5143 27.3493C84.9532 27.3493 83.556 26.9482 82.3227 26.1462C81.0893 25.3441 80.1147 24.1797 79.3989 22.6531C78.683 21.1266 78.3251 19.2723 78.3251 17.0902C78.3251 14.8823 78.6874 13.0193 79.4118 11.5014C80.1449 9.97483 81.1325 8.82343 82.3744 8.0472C83.6164 7.26236 85.0006 6.86993 86.5272 6.86993C87.6915 6.86993 88.6489 7.0683 89.3992 7.46504C90.1496 7.85315 90.7447 8.32319 91.1846 8.87518C91.6244 9.41853 91.9651 9.9317 92.2066 10.4147H92.4006V0.504898L97.0968 0.504898L97.0968 27H92.4912V23.8692H92.2066C91.9651 24.3522 91.6158 24.8654 91.1587 25.4087C90.7016 25.9435 90.0978 26.4006 89.3475 26.7801C88.5971 27.1596 87.6527 27.3493 86.5143 27.3493ZM87.8209 23.507C88.8128 23.507 89.658 23.2396 90.3566 22.7049C91.0552 22.1615 91.5856 21.4069 91.9478 20.4409C92.3101 19.4749 92.4912 18.3494 92.4912 17.0643C92.4912 15.7793 92.3101 14.6624 91.9478 13.7136C91.5942 12.7649 91.0681 12.0275 90.3695 11.5014C89.6795 10.9753 88.83 10.7122 87.8209 10.7122C86.7773 10.7122 85.9062 10.9839 85.2076 11.5273C84.509 12.0706 83.9829 12.821 83.6293 13.7783C83.2757 14.7357 83.0989 15.831 83.0989 17.0643C83.0989 18.3063 83.2757 19.4146 83.6293 20.3892C83.9916 21.3551 84.522 22.1184 85.2206 22.679C85.9278 23.231 86.7946 23.507 87.8209 23.507Z" fill="black"/>
<path d="M103.515 27.2846C102.73 27.2846 102.057 27.0086 101.497 26.4566C100.936 25.9047 100.66 25.2319 100.669 24.4385C100.66 23.6622 100.936 22.9981 101.497 22.4462C102.057 21.8942 102.73 21.6182 103.515 21.6182C104.274 21.6182 104.934 21.8942 105.494 22.4462C106.064 22.9981 106.353 23.6622 106.361 24.4385C106.353 24.9646 106.215 25.4432 105.947 25.8745C105.688 26.3057 105.343 26.6507 104.912 26.9094C104.49 27.1596 104.024 27.2846 103.515 27.2846Z" fill="#73AFF5"/>
</svg>
