<svg width="32" height="33" viewBox="0 0 32 33" fill="none" xmlns="http://www.w3.org/2000/svg">
<mask id="mask0_6_20917" style="mask-type:luminance" maskUnits="userSpaceOnUse" x="0" y="0" width="32" height="33">
<rect y="0.199219" width="32" height="32" fill="white"/>
</mask>
<g mask="url(#mask0_6_20917)">
<path fill-rule="evenodd" clip-rule="evenodd" d="M15.9997 3.5332C9.00408 3.5332 3.33303 9.20424 3.33301 16.1998C3.33299 23.1954 9.00402 28.8665 15.9996 28.8665C22.9952 28.8666 28.6663 23.1955 28.6663 16.1999C28.6663 9.20434 22.9953 3.53325 15.9997 3.5332H15.9997Z" fill="#039BE5"/>
<path fill-rule="evenodd" clip-rule="evenodd" d="M17.715 19.5558H20.993L21.5077 16.2258H17.7143V14.4058C17.7143 13.0224 18.1663 11.7958 19.4603 11.7958H21.5397V8.88976C21.1743 8.84042 20.4017 8.73242 18.9417 8.73242C15.893 8.73242 14.1057 10.3424 14.1057 14.0104V16.2258H10.9717V19.5558H14.1057V28.7084C14.7263 28.8018 15.355 28.8651 16.0003 28.8651C16.5837 28.8651 17.153 28.8118 17.715 28.7358V19.5558Z" fill="white"/>
</g>
</svg>
