<svg width="28" height="29" viewBox="0 0 28 29" fill="none" xmlns="http://www.w3.org/2000/svg">
<mask id="mask0_6_20643" style="mask-type:luminance" maskUnits="userSpaceOnUse" x="0" y="0" width="28" height="29">
<rect y="0.199219" width="28" height="28" fill="white"/>
</mask>
<g mask="url(#mask0_6_20643)">
<path fill-rule="evenodd" clip-rule="evenodd" d="M25.4394 11.914H24.4997V11.8656H13.9997V16.5322H20.5931C19.6312 19.2488 17.0464 21.1989 13.9997 21.1989C10.1339 21.1989 6.99967 18.0646 6.99967 14.1989C6.99967 10.3331 10.1339 7.19889 13.9997 7.19889C15.7841 7.19889 17.4075 7.87206 18.6436 8.97164L21.9435 5.67173C19.8598 3.72981 17.0727 2.53223 13.9997 2.53223C7.55676 2.53223 2.33301 7.75598 2.33301 14.1989C2.33301 20.6418 7.55676 25.8656 13.9997 25.8656C20.4426 25.8656 25.6663 20.6418 25.6663 14.1989C25.6663 13.4166 25.5858 12.6531 25.4394 11.914Z" fill="#FFC107"/>
<path fill-rule="evenodd" clip-rule="evenodd" d="M3.67871 8.76864L7.51179 11.5797C8.54896 9.01189 11.0608 7.19889 14.0002 7.19889C15.7846 7.19889 17.408 7.87206 18.6441 8.97164L21.944 5.67173C19.8604 3.72981 17.0732 2.53223 14.0002 2.53223C9.51905 2.53223 5.63288 5.06214 3.67871 8.76864Z" fill="#FF3D00"/>
<path fill-rule="evenodd" clip-rule="evenodd" d="M13.9995 25.8663C17.013 25.8663 19.7512 24.713 21.8214 22.8376L18.2106 19.7821C17.0393 20.6694 15.5833 21.1996 13.9995 21.1996C10.965 21.1996 8.38845 19.2647 7.41778 16.5645L3.61328 19.4957C5.54411 23.274 9.46528 25.8663 13.9995 25.8663Z" fill="#4CAF50"/>
<path fill-rule="evenodd" clip-rule="evenodd" d="M25.4398 11.9146H24.5V11.8662H14V16.5329H20.5934C20.1314 17.8378 19.292 18.963 18.2093 19.7826C18.2099 19.782 18.2105 19.782 18.2111 19.7815L21.8219 22.837C21.5664 23.0691 25.6667 20.0329 25.6667 14.1995C25.6667 13.4173 25.5862 12.6537 25.4398 11.9146Z" fill="#1976D2"/>
</g>
</svg>
