<?xml version="1.0" encoding="UTF-8"?>
<svg version="1.1" xmlns="http://www.w3.org/2000/svg" width="50" height="50">
<path d="M0 0 C3.62613199 0.56959153 5.25517741 1.92374534 7.75 4.5625 C8.36359375 5.20316406 8.9771875 5.84382813 9.609375 6.50390625 C10.06828125 6.99761719 10.5271875 7.49132812 11 8 C14.74636902 6.34481541 16.80194852 4.20263039 19.4375 1.14453125 C21 0 21 0 23.1875 0.32421875 C23.785625 0.54722656 24.38375 0.77023437 25 1 C24.06409496 2.1055189 23.12620142 3.20935453 22.1875 4.3125 C21.66542969 4.92738281 21.14335938 5.54226562 20.60546875 6.17578125 C19.12827531 7.85424679 17.59960869 9.43882034 16 11 C17.40844718 14.21524305 19.10344786 16.32183868 21.625 18.75 C22.25664063 19.36359375 22.88828125 19.9771875 23.5390625 20.609375 C24.02117188 21.06828125 24.50328125 21.5271875 25 22 C24.67 22.66 24.34 23.32 24 24 C20.37386801 23.43040847 18.74482259 22.07625466 16.25 19.4375 C15.32960938 18.47650391 15.32960938 18.47650391 14.390625 17.49609375 C13.93171875 17.00238281 13.4728125 16.50867188 13 16 C9.28755129 17.65175904 7.15001404 19.78062104 4.46484375 22.7578125 C3 24 3 24 0 24 C0.56959153 20.37386801 1.92374534 18.74482259 4.5625 16.25 C5.52349609 15.32960938 5.52349609 15.32960938 6.50390625 14.390625 C6.99761719 13.93171875 7.49132812 13.4728125 8 13 C6.34824096 9.28755129 4.21937896 7.15001404 1.2421875 4.46484375 C0 3 0 3 0 0 Z " fill="#3D7B58" transform="translate(13,13)"/>
</svg>
