<?xml version="1.0" standalone="no"?>
<!DOCTYPE svg PUBLIC "-//W3C//DTD SVG 20010904//EN"
 "http://www.w3.org/TR/2001/REC-SVG-20010904/DTD/svg10.dtd">
<svg version="1.0" xmlns="http://www.w3.org/2000/svg"
 width="353.000000pt" height="82.000000pt" viewBox="0 0 353.000000 82.000000"
 preserveAspectRatio="xMidYMid meet">

<g transform="translate(0.000000,82.000000) scale(0.100000,-0.100000)"
fill="#000000" stroke="none">
<path d="M502 708 c-5 -18 -28 -113 -52 -210 -24 -98 -47 -178 -50 -178 -3 0
-26 54 -50 120 -43 120 -62 144 -75 93 -3 -16 -22 -79 -42 -140 l-35 -113 -58
0 c-64 0 -93 -7 -84 -21 3 -5 41 -9 84 -9 l78 0 38 120 c21 66 41 117 45 113
4 -5 26 -61 50 -126 23 -65 47 -116 53 -114 6 2 33 92 61 200 27 108 51 194
53 192 4 -4 101 -538 102 -557 0 -5 6 -8 14 -8 7 0 32 40 55 90 l42 90 85 0
c64 0 85 3 82 13 -3 8 -31 12 -94 12 l-89 0 -37 -72 -37 -73 -10 53 c-6 28
-26 146 -46 262 -51 295 -49 288 -62 292 -6 2 -16 -11 -21 -29z"/>
<path d="M3096 706 c-54 -20 -106 -65 -140 -120 -25 -40 -30 -60 -34 -129 -2
-45 1 -101 7 -124 16 -57 67 -121 126 -158 43 -27 57 -30 129 -30 123 0 191
42 252 155 29 54 27 210 -3 267 -28 52 -83 106 -131 129 -48 23 -155 28 -206
10z m181 -112 c65 -49 89 -118 73 -206 -20 -107 -99 -163 -203 -144 -47 9
-102 66 -116 121 -16 64 -14 100 10 156 30 69 83 101 157 96 32 -2 63 -12 79
-23z"/>
<path d="M800 708 c0 -2 40 -129 88 -283 l87 -280 31 -3 c17 -2 35 3 41 10 6
7 32 88 58 181 26 92 51 167 55 167 3 0 31 -80 61 -177 l54 -178 36 -3 37 -3
91 274 c50 150 91 279 91 285 0 20 -88 15 -98 -5 -5 -10 -31 -92 -57 -183 -26
-91 -51 -169 -55 -173 -7 -8 -19 28 -91 266 -33 108 -33 108 -63 105 -21 -2
-31 -10 -37 -28 -4 -14 -29 -98 -55 -188 -26 -89 -51 -159 -54 -155 -4 5 -28
80 -54 168 -65 220 -56 205 -116 205 -27 0 -50 -1 -50 -2z"/>
<path d="M1580 430 l0 -281 138 3 137 3 3 43 3 42 -90 0 -91 0 0 80 0 80 85 0
85 0 0 45 0 45 -85 0 -85 0 0 65 0 65 91 0 90 0 -3 43 -3 42 -137 3 -138 3 0
-281z"/>
<path d="M1942 433 l3 -278 125 0 125 0 0 40 0 40 -77 3 -78 3 0 234 0 235
-50 0 -50 0 2 -277z"/>
<path d="M2242 433 l3 -278 125 0 125 0 0 40 0 40 -77 3 -78 3 -2 232 -3 232
-48 3 -47 3 2 -278z"/>
<path d="M2752 433 l3 -278 48 -3 47 -3 0 280 0 281 -50 0 -50 0 2 -277z"/>
<path d="M2557 242 c-21 -23 -22 -51 -1 -80 31 -45 104 -17 104 40 0 51 -69
78 -103 40z"/>
</g>
</svg>
