<?xml version="1.0" ?>
<!-- Uploaded to: SVG Repo, www.svgrepo.com, Generator: SVG Repo Mixer Tools -->
<svg width="800px" height="800px" viewBox="0 0 24 24" version="1.1" xml:space="preserve" xmlns="http://www.w3.org/2000/svg" xmlns:xlink="http://www.w3.org/1999/xlink">
<style type="text/css">
	.st0{opacity:0.2;fill:none;stroke:#000000;stroke-width:5.000000e-02;stroke-miterlimit:10;}
	.st1{fill:none;stroke:#000000;stroke-width:2;stroke-linecap:round;stroke-linejoin:round;stroke-miterlimit:10;}
</style>
<g id="Layer_1"/>
<g id="Layer_2">
<path d="M15,16.6V5c0-0.8-0.3-1.6-0.9-2.1C13.6,2.3,12.8,2,12,2c-1.7,0-3,1.3-3,3H8C7.4,5,7,5.4,7,6s0.4,1,1,1h1v9.6   c-0.1,0.1-0.2,0.2-0.3,0.4C8.2,17.5,8,18.2,8,19c0,1.7,1.1,3,2.5,3h3c0.7,0,1.4-0.4,1.8-1c0.4-0.5,0.7-1.3,0.7-2   C16,18,15.6,17.2,15,16.6z M11,5c0-0.6,0.4-1,1-1c0.3,0,0.5,0.1,0.7,0.3C12.9,4.5,13,4.7,13,5v11h-2v-1c0.6,0,1-0.4,1-1s-0.4-1-1-1   v-2c0.6,0,1-0.4,1-1s-0.4-1-1-1V7c0.6,0,1-0.4,1-1S11.6,5,11,5z M13.8,19.8c-0.1,0.1-0.2,0.2-0.3,0.2h-3c-0.2,0-0.5-0.4-0.5-1   c0-0.3,0.1-0.6,0.3-0.8c0,0,0.1-0.2,0.3-0.2h3c0.2,0,0.5,0.4,0.5,1C14,19.3,13.9,19.6,13.8,19.8z"/>
</g>
</svg>